<?xml version="1.0" encoding="utf-8"?>
<!-- Generator: Adobe Illustrator 26.0.3, SVG Export Plug-In . SVG Version: 6.00 Build 0)  -->
<svg version="1.1" id="Layer_1" xmlns="http://www.w3.org/2000/svg" xmlns:xlink="http://www.w3.org/1999/xlink" x="0px" y="0px"
	 viewBox="0 0 63.59 50.45" enable-background="new 0 0 63.59 50.45" xml:space="preserve">
<g>
	<path opacity="0.12" d="M32.41,18.81c-15.5-1.34-17.84,6-15.97,10.22C16.44,29.03,47.73,20.13,32.41,18.81z"/>
	<g>
		<path fill="#FFC857" d="M24.13,31.19c-3.46-1.99-5.14-4.62-5.06-7.24c-4.57,2.88-5.04,7.84-0.24,10.68
			c6.02,3.57,13.63,2.32,18.59-0.54c0,0,0.01-0.01,0.01-0.01C32.65,34.26,27.78,33.3,24.13,31.19z"/>
	</g>
	<g>
		<path fill="#F1AB0C" d="M31.56,13.31c-7.54,0-13.66,6.11-13.67,13.65h0.01c0,2.02,1.33,4.04,4,5.58c5.34,3.08,13.99,3.08,19.33,0
			c2.86-1.65,4.18-3.85,3.98-6.01C44.98,19.19,38.96,13.31,31.56,13.31z"/>
	</g>
	<g>
		<path fill="#F6C861" d="M40.8,16.91c-1.37-0.15-3.69-0.27-5.84,0.97c-3.39,1.94-5.71,5.99-6.89,12.05
			c-0.1,0.54,0.25,1.06,0.78,1.16c0.06,0.01,0.13,0.02,0.19,0.02c0.46,0,0.88-0.33,0.97-0.8c1.06-5.45,3.05-9.04,5.9-10.69
			c2.81-1.63,6.64-0.64,6.75-0.61C41.79,17.91,41.53,17.63,40.8,16.91z"/>
	</g>
	<g>
		<path fill="#F6C861" d="M25.08,14.94c-3.12,1.77-5.22,4.32-6.03,9.2c-0.09,0.54,0.27,1.05,0.81,1.14
			c0.06,0.01,0.11,0.01,0.16,0.01c0.48,0,0.89-0.34,0.98-0.83c0.72-4.3,2.34-7.34,4.84-9.02c3.11-2.1,6.81-2.03,7.26-2.05
			C29.83,12.85,26.58,14.09,25.08,14.94z"/>
	</g>
	<g>
		<path fill="#F6C861" d="M29.15,15.08c-3.57,2.26-5.96,6.25-7.12,11.85c-0.17,0.8,0.35,1.59,1.15,1.75c0.1,0.02,0.2,0.03,0.3,0.03
			c0.69,0,1.31-0.48,1.45-1.19c0.98-4.76,2.92-8.1,5.76-9.92c3.49-2.23,8.32-2.04,8.39-2.02c-1.22-0.84-2.04-1.47-4.48-1.93
			C33.16,13.62,30.96,13.93,29.15,15.08z"/>
	</g>
</g>
</svg>
