<?xml version="1.0" standalone="no"?>
<!DOCTYPE svg PUBLIC "-//W3C//DTD SVG 20010904//EN"
 "http://www.w3.org/TR/2001/REC-SVG-20010904/DTD/svg10.dtd">
<svg version="1.0" xmlns="http://www.w3.org/2000/svg"
 width="1920.000000pt" height="1080.000000pt" viewBox="0 0 1920.000000 1080.000000"
 preserveAspectRatio="xMidYMid meet">

<g transform="translate(0.000000,1080.000000) scale(0.100000,-0.100000)"
fill="#000000" stroke="none">
<path d="M0 5940 l0 -4860 9600 0 9600 0 0 4860 0 4860 -9600 0 -9600 0 0
-4860z m11763 1703 c99 -29 169 -73 253 -157 128 -128 178 -253 178 -441 0
-184 -53 -313 -179 -441 -86 -87 -160 -131 -270 -159 -75 -19 -221 -19 -303 0
-204 48 -371 215 -428 426 -21 79 -24 253 -5 329 56 231 263 424 491 460 70
11 196 3 263 -17z m-9119 1 c14 -5 16 -36 16 -240 l0 -234 195 0 195 0 2 238
3 237 130 0 130 0 3 -597 2 -598 -135 0 -135 0 -2 238 -3 237 -192 3 -193 2 0
-240 0 -240 -135 0 -135 0 0 600 0 600 119 0 c66 0 126 -3 135 -6z m1691 -585
c132 -326 242 -596 243 -601 2 -5 -63 -7 -144 -6 l-148 3 -28 75 c-16 41 -35
94 -44 118 l-16 42 -226 0 -227 0 -43 -120 -44 -120 -145 0 c-134 0 -145 1
-140 18 12 42 470 1168 478 1172 4 3 61 7 126 9 l119 2 239 -592z m767 581
c162 -17 282 -99 321 -220 21 -66 22 -189 2 -258 -22 -74 -87 -150 -162 -189
l-62 -31 205 -246 204 -246 -173 0 -174 0 -179 232 -179 232 -3 -232 -2 -232
-135 0 -135 0 0 600 0 600 193 0 c105 0 231 -4 279 -10z m963 1 c158 -16 266
-66 379 -178 112 -110 166 -246 166 -418 0 -173 -51 -298 -169 -415 -87 -87
-164 -131 -277 -160 -65 -17 -111 -20 -291 -20 l-213 0 0 593 c0 327 3 597 7
600 9 10 292 8 398 -2z m935 -232 l0 -239 195 0 195 0 2 238 3 237 133 2 132
2 0 -599 0 -600 -135 0 -135 0 0 240 0 240 -192 -2 c-185 -3 -193 -4 -194 -23
-1 -11 -2 -118 -3 -237 l-1 -218 -135 0 -135 0 0 593 c0 327 2 596 5 599 3 3
64 6 135 6 l130 0 0 -239z m1510 71 c287 -708 404 -997 408 -1012 4 -17 -7
-18 -141 -18 l-145 0 -44 120 -43 120 -227 0 -226 0 -16 -42 c-9 -24 -28 -77
-44 -118 l-28 -75 -148 -3 c-81 -1 -146 1 -144 6 1 5 110 274 242 599 l238
591 126 -1 125 -2 67 -165z m1218 161 c9 -6 12 -37 10 -120 l-3 -112 -140 -2
-140 -2 -3 -477 -2 -478 -135 0 -135 0 0 479 0 480 -127 0 c-71 0 -134 0 -140
1 -10 0 -13 31 -13 120 l0 120 408 -1 c224 0 413 -3 420 -8z m756 3 c14 -5 16
-57 16 -480 l0 -474 205 0 205 0 0 -120 0 -120 -340 0 -340 0 0 600 0 600 119
0 c66 0 126 -3 135 -6z m2594 -116 c2 -107 1 -118 -15 -119 -10 0 -73 0 -140
1 l-123 1 0 -480 0 -481 -140 0 -140 0 0 468 c0 257 0 472 0 479 0 9 -35 12
-127 11 -71 0 -134 0 -140 1 -10 1 -13 31 -13 114 0 63 3 116 6 119 3 4 191 5
417 5 l412 -2 3 -117z m860 -3 l3 -120 -138 0 -138 0 -3 -477 -2 -478 -135 0
-135 0 -2 478 c-2 373 -6 477 -15 478 -7 1 -71 2 -143 3 l-130 1 0 113 c0 63
3 117 7 120 4 4 191 6 417 5 l411 -3 3 -120z m790 3 l3 -118 -205 0 c-240 0
-219 14 -214 -140 l3 -95 198 -3 197 -2 0 -120 0 -120 -197 -2 -198 -3 0 -115
0 -115 205 -5 205 -5 3 -117 3 -118 -346 0 -345 0 0 593 c0 327 3 596 6 600 4
3 158 5 343 4 l336 -2 3 -117z m734 93 c96 -31 162 -86 201 -170 28 -59 32
-76 32 -156 0 -127 -21 -183 -99 -261 -34 -33 -78 -67 -99 -75 -20 -7 -36 -16
-35 -21 2 -4 86 -107 188 -229 102 -123 191 -231 198 -241 13 -17 6 -18 -160
-18 l-173 1 -40 54 c-114 153 -311 404 -317 405 -5 0 -8 -103 -8 -230 l0 -230
-135 0 -135 0 0 594 0 595 23 4 c12 2 128 3 257 2 209 -2 242 -5 302 -24z
m652 16 c9 -7 67 -90 129 -186 62 -96 117 -174 122 -174 6 0 61 79 123 174 62
96 120 180 130 187 12 10 56 13 162 11 80 -1 148 -4 153 -6 4 -2 -92 -152
-213 -332 l-220 -328 0 -266 0 -267 -135 0 -135 0 0 268 0 268 -219 327 c-132
195 -215 328 -208 330 28 11 295 5 311 -6z m-12962 -1438 c61 -17 135 -50 176
-77 11 -7 3 -31 -38 -113 -29 -57 -53 -105 -55 -107 -1 -1 -26 9 -56 22 -83
39 -175 59 -227 51 -91 -14 -134 -101 -76 -158 14 -14 64 -44 112 -67 48 -23
115 -56 149 -72 82 -40 177 -127 210 -192 49 -95 26 -263 -48 -354 -67 -83
-185 -131 -340 -139 -136 -7 -232 13 -355 73 -140 69 -139 63 -64 189 34 58
66 108 71 111 5 3 23 -6 40 -20 47 -40 172 -96 227 -103 60 -7 144 12 166 36
24 26 37 78 26 106 -15 39 -49 63 -194 137 -155 78 -222 132 -264 213 -23 43
-27 62 -27 135 0 73 4 93 28 141 48 100 162 185 279 209 58 12 175 2 260 -21z
m5853 21 c87 -13 187 -44 242 -76 l43 -25 -56 -112 c-31 -62 -58 -113 -59
-115 -2 -2 -21 6 -44 17 -140 72 -327 60 -449 -29 -125 -90 -171 -274 -103
-413 35 -72 50 -91 113 -139 101 -77 296 -92 417 -32 42 21 64 27 69 20 25
-33 104 -207 99 -219 -6 -17 -94 -60 -167 -82 -86 -26 -261 -31 -354 -11 -234
53 -439 247 -491 467 -67 288 93 581 385 704 113 48 229 63 355 45z m1099 -16
c202 -52 374 -235 422 -450 24 -108 16 -264 -18 -361 -51 -145 -156 -268 -289
-338 -127 -67 -293 -84 -443 -45 -104 26 -177 69 -261 154 -119 119 -175 262
-175 440 0 211 85 383 248 505 144 108 329 142 516 95z m5606 -11 c47 -13 104
-35 127 -49 l43 -25 -56 -112 c-31 -62 -57 -113 -59 -115 -1 -1 -26 9 -55 22
-120 56 -256 56 -380 0 -131 -59 -211 -207 -190 -354 18 -129 116 -243 241
-281 104 -32 233 -25 318 17 61 30 61 31 74 10 37 -60 98 -198 94 -210 -9 -22
-127 -73 -210 -90 -244 -51 -466 12 -632 179 -126 125 -185 259 -185 420 0
153 66 310 177 421 97 97 245 174 371 194 85 13 224 2 322 -27z m-11884 10 c6
-2 69 -155 140 -339 71 -184 131 -334 134 -334 3 0 63 151 134 335 149 388
114 348 306 343 l115 -3 52 -570 c28 -313 52 -572 53 -575 1 -7 45 100 265
647 l198 491 34 7 c53 10 212 4 222 -9 4 -6 50 -114 101 -241 103 -255 369
-913 377 -932 4 -10 -28 -13 -143 -13 l-149 0 -24 68 c-13 37 -32 91 -43 120
l-19 52 -227 0 -227 0 -43 -120 -44 -120 -273 0 -274 0 -5 43 c-3 23 -15 170
-27 327 -11 157 -24 296 -28 309 -5 19 -34 -53 -127 -320 l-119 -344 -87 -3
c-77 -2 -87 -1 -90 15 -2 10 -55 166 -118 346 -87 251 -116 323 -121 305 -4
-12 -17 -151 -29 -308 -11 -157 -23 -304 -27 -327 l-5 -43 -136 0 -135 0 6 58
c3 31 27 299 53 594 40 449 51 538 64 541 22 5 252 6 266 0z m2635 -2 c81 -7
121 -15 168 -36 79 -36 150 -111 174 -185 21 -66 22 -189 2 -258 -21 -71 -86
-148 -157 -186 -32 -17 -58 -34 -58 -38 0 -6 328 -405 383 -465 l20 -23 -175
0 -175 0 -179 233 -179 232 -3 -232 -2 -233 -135 0 -135 0 0 593 c0 327 2 596
5 599 10 9 334 9 446 -1z m1344 -115 l0 -119 -137 1 -138 1 -2 -477 -3 -477
-137 -3 -138 -3 -2 478 -3 478 -120 2 c-66 1 -128 2 -137 2 -16 1 -18 14 -18
120 l0 119 418 -1 417 -2 0 -119z m3121 117 c7 -2 117 -169 246 -369 l233
-365 5 368 5 368 133 3 132 3 0 -590 c0 -325 0 -594 0 -598 0 -5 -60 -9 -134
-11 l-134 -3 -233 366 c-129 200 -237 365 -240 365 -3 0 -6 -10 -6 -22 -1 -13
-1 -177 -2 -365 l-1 -343 -135 0 -135 0 0 593 c0 327 2 596 6 599 6 7 243 8
260 1z m1692 -118 l3 -120 -138 0 -138 0 -3 -477 -2 -478 -140 0 -140 0 0 479
0 479 -127 1 c-71 0 -134 0 -140 0 -10 1 -13 31 -13 114 0 63 3 117 6 120 4 3
192 5 418 4 l411 -2 3 -120z m672 100 c71 -22 141 -66 176 -112 82 -107 93
-283 26 -407 -30 -56 -97 -118 -153 -143 -22 -9 -38 -21 -36 -26 1 -5 81 -103
176 -218 l174 -209 230 569 229 569 126 -1 125 -2 67 -165 c287 -708 404 -997
408 -1012 4 -17 -7 -18 -141 -18 l-145 0 -44 120 -43 120 -227 0 -226 0 -16
-42 c-9 -24 -28 -77 -44 -118 l-28 -75 -284 -2 -285 -3 -155 202 c-85 111
-167 215 -182 232 l-27 31 -1 -232 0 -233 -135 0 -135 0 0 601 0 602 258 -6
c201 -4 269 -9 312 -22z m3448 17 c9 -6 12 -38 10 -122 l-3 -113 -140 -1 -140
-1 -3 -477 -2 -478 -135 0 -135 0 0 480 0 479 -140 -2 -140 -2 0 123 0 122
408 0 c224 0 413 -4 420 -8z m-7705 -1439 c99 -29 169 -73 253 -157 128 -128
178 -253 178 -441 0 -173 -51 -306 -161 -424 -117 -127 -230 -180 -405 -188
-130 -7 -219 11 -322 65 -81 42 -176 133 -225 216 -90 151 -113 350 -59 525
65 215 261 387 478 421 70 11 196 3 263 -17z m2871 -3 c72 -18 131 -43 169
-72 17 -13 15 -20 -39 -126 -33 -66 -61 -111 -68 -108 -146 65 -222 77 -330
52 -136 -32 -221 -103 -265 -221 -63 -167 17 -356 181 -430 111 -51 267 -47
379 9 l46 23 57 -115 c64 -129 66 -117 -29 -162 -121 -57 -319 -76 -452 -45
-236 56 -426 236 -483 460 -25 99 -25 181 0 279 29 115 73 189 165 282 67 68
96 89 175 127 52 25 120 50 150 56 30 6 64 13 75 15 39 9 195 -5 269 -24z
m-5006 -14 c106 -29 188 -96 231 -186 23 -49 26 -67 26 -165 0 -98 -3 -116
-27 -167 -50 -108 -153 -183 -282 -207 -33 -6 -104 -11 -158 -11 l-98 0 0
-220 0 -220 -135 0 -135 0 0 602 0 601 263 -6 c182 -4 278 -11 315 -21z m952
-1 c71 -22 141 -66 176 -112 82 -107 93 -283 26 -407 -30 -56 -97 -118 -153
-143 -22 -9 -39 -19 -39 -23 0 -3 84 -107 188 -231 103 -124 193 -233 201
-242 12 -16 1 -17 -160 -17 l-174 1 -155 201 c-85 111 -167 215 -182 232 l-27
31 -1 -232 0 -233 -135 0 -135 0 0 601 0 602 258 -6 c201 -4 269 -9 312 -22z
m2255 -460 c0 -477 0 -480 -23 -537 -30 -74 -97 -141 -171 -170 -83 -32 -255
-33 -326 0 -66 30 -125 72 -125 87 0 7 18 61 41 119 l41 106 32 -27 c66 -55
137 -67 194 -33 61 37 62 45 62 508 0 230 3 422 7 426 4 4 66 6 138 4 l130 -3
0 -480z m843 363 c2 -91 0 -118 -10 -119 -7 0 -98 -1 -203 -2 l-190 -2 -3
-117 -3 -118 196 0 195 0 0 -120 0 -120 -195 0 -195 0 0 -120 0 -120 205 0
205 0 0 -120 0 -120 -345 0 -345 0 0 594 c0 558 1 595 18 599 9 2 163 4 342 3
l325 -1 3 -117z m1997 116 c12 -5 15 -27 15 -120 0 -84 -3 -114 -12 -115 -7
-1 -70 -1 -140 0 l-128 1 0 -480 0 -480 -140 0 -140 0 0 481 0 480 -140 -3
-140 -3 0 116 c0 64 3 119 6 122 8 8 798 9 819 1z"/>
<path d="M11480 7383 c-60 -22 -133 -98 -162 -170 -19 -49 -23 -76 -23 -173 0
-110 1 -118 33 -182 63 -129 190 -189 335 -158 92 19 145 61 192 154 40 78 40
80 40 190 -1 91 -5 121 -23 167 -28 69 -81 133 -136 161 -55 29 -191 35 -256
11z"/>
<path d="M3963 7255 c-3 -10 -32 -86 -64 -169 l-58 -151 126 -3 c69 -1 128 0
130 2 5 4 -113 326 -123 335 -2 2 -7 -4 -11 -14z"/>
<path d="M4902 7274 l3 -159 70 3 c126 6 180 55 179 160 -2 94 -54 136 -182
148 l-73 7 3 -159z"/>
<path d="M5940 7045 l0 -358 58 7 c89 10 147 34 200 81 149 134 161 383 24
523 -62 63 -123 92 -211 99 l-71 6 0 -358z"/>
<path d="M8252 7107 c-34 -89 -62 -166 -62 -170 0 -4 59 -7 131 -7 121 0 131
1 124 18 -4 9 -32 82 -62 162 -31 80 -59 148 -62 152 -4 4 -34 -66 -69 -155z"/>
<path d="M15157 7424 c-3 -5 -6 -75 -6 -157 l-2 -147 73 0 c130 1 188 48 188
152 0 59 -27 109 -70 130 -40 20 -174 35 -183 22z"/>
<path d="M9815 5937 c-93 -44 -153 -132 -175 -256 -31 -171 36 -333 164 -399
43 -22 64 -26 136 -26 131 1 205 44 260 155 96 189 33 446 -128 525 -25 12
-65 20 -122 22 -73 2 -92 -1 -135 -21z"/>
<path d="M5341 5809 c-40 -105 -110 -287 -116 -301 -7 -17 3 -18 124 -18 72 0
131 3 131 7 0 8 -120 326 -126 332 -2 2 -8 -7 -13 -20z"/>
<path d="M6280 5836 c0 -177 -11 -160 95 -156 107 4 158 53 158 152 0 99 -50
142 -181 154 l-72 7 0 -157z"/>
<path d="M12992 5834 l3 -159 70 3 c116 5 172 47 182 135 4 34 0 57 -16 90
-26 54 -70 76 -173 84 l-69 6 3 -159z"/>
<path d="M14172 5667 c-34 -89 -62 -166 -62 -170 0 -4 59 -7 131 -7 121 0 131
1 124 18 -4 9 -32 82 -62 162 -31 80 -59 148 -62 152 -4 4 -34 -66 -69 -155z"/>
<path d="M8768 4511 c-87 -28 -157 -107 -190 -214 -28 -95 -22 -229 14 -309
53 -116 142 -172 273 -173 147 0 238 68 286 217 42 131 13 303 -67 397 -54 63
-103 84 -204 88 -47 1 -97 -2 -112 -6z"/>
<path d="M6590 4390 l0 -163 78 5 c96 6 164 34 186 77 9 16 16 55 16 85 0 45
-5 60 -27 87 -36 42 -75 57 -172 65 l-81 7 0 -163z"/>
<path d="M7552 4394 l3 -159 70 3 c116 5 172 47 182 135 4 34 0 57 -16 90 -26
54 -70 76 -173 84 l-69 6 3 -159z"/>
<path d="M1972 680 c-1 -8 -4 -50 -6 -92 -3 -89 -15 -108 -63 -108 -20 0 -32
-4 -28 -10 3 -5 22 -10 40 -10 54 0 66 28 62 141 -1 52 -4 87 -5 79z"/>
<path d="M8867 683 c-11 -11 -8 -223 3 -223 6 0 10 25 10 55 l0 54 58 4 57 3
-57 2 -58 2 0 45 0 45 66 0 c41 0 63 4 59 10 -7 11 -128 14 -138 3z"/>
<path d="M9242 580 c3 -111 4 -115 26 -118 12 -2 22 1 22 7 0 6 -6 11 -14 11
-20 0 -24 22 -24 118 0 46 -3 86 -6 90 -4 3 -5 -46 -4 -108z"/>
<path d="M9320 587 c0 -106 7 -127 42 -127 24 0 23 16 -2 23 -18 5 -20 14 -20
106 0 61 -4 101 -10 101 -6 0 -10 -41 -10 -103z"/>
<path d="M9667 683 c-4 -3 -7 -47 -7 -96 l0 -90 -71 89 c-39 49 -76 90 -82 92
-14 3 -14 -211 0 -215 4 -2 7 37 5 87 -2 49 0 90 5 90 4 -1 40 -41 78 -90 39
-50 73 -90 78 -90 4 0 7 52 7 115 0 63 -1 115 -3 115 -2 0 -7 -3 -10 -7z"/>
<path d="M15925 680 c-6 -9 -9 -198 -4 -217 1 -5 5 17 8 47 l6 55 55 6 55 5
-55 5 -55 4 0 40 0 40 63 3 c34 2 62 7 62 12 0 13 -127 13 -135 0z"/>
<path d="M16662 578 l3 -113 28 -3 c15 -2 27 1 27 7 0 6 -9 11 -20 11 -19 0
-20 7 -20 105 0 66 -4 105 -10 105 -7 0 -10 -40 -8 -112z"/>
<path d="M16752 580 c3 -111 4 -115 26 -118 12 -2 22 1 22 7 0 6 -6 11 -14 11
-21 0 -25 23 -24 118 0 45 -2 86 -6 89 -4 4 -5 -45 -4 -107z"/>
<path d="M1295 625 c-19 -18 -25 -35 -25 -70 0 -83 72 -123 125 -70 53 52 19
165 -50 165 -14 0 -37 -11 -50 -25z m89 -14 c20 -22 24 -78 7 -110 -9 -15 -21
-21 -46 -21 -40 0 -55 20 -55 76 0 65 56 98 94 55z"/>
<path d="M1114 624 c-18 -14 -18 -15 -1 -10 52 17 65 17 81 1 23 -24 20 -34
-16 -53 -46 -25 -78 -58 -78 -82 0 -18 6 -20 65 -20 37 0 65 4 65 10 0 6 -25
10 -56 10 -66 0 -67 12 -6 53 54 37 66 57 46 85 -18 27 -71 30 -100 6z"/>
<path d="M1477 629 c-9 -6 -15 -14 -12 -20 4 -5 17 -2 31 8 20 13 30 14 50 4
34 -15 28 -39 -16 -68 -57 -38 -70 -52 -70 -73 0 -18 7 -20 65 -20 37 0 65 4
65 10 0 6 -25 10 -56 10 -64 0 -67 12 -13 48 74 49 83 66 53 96 -17 18 -70 21
-97 5z"/>
<path d="M1644 624 c-19 -15 -19 -16 1 -9 44 16 63 16 78 1 21 -21 12 -43 -25
-62 -41 -21 -68 -51 -68 -74 0 -18 7 -20 65 -20 37 0 65 4 65 10 0 6 -25 10
-55 10 -67 0 -72 17 -15 49 36 20 70 55 70 73 0 35 -81 50 -116 22z"/>
<path d="M2695 615 c-14 -13 -25 -36 -25 -50 0 -32 41 -75 72 -75 13 0 34 7
46 16 20 14 22 14 22 -1 0 -20 -19 -57 -34 -67 -18 -13 -53 -9 -66 7 -16 19
-31 20 -24 1 16 -42 101 -39 124 3 18 35 24 108 10 141 -23 55 -84 67 -125 25z
m97 -12 c42 -38 4 -100 -59 -94 -20 2 -43 31 -43 56 0 49 63 73 102 38z"/>
<path d="M2276 615 c-24 -13 -31 -13 -38 -3 -4 7 -8 -23 -8 -69 0 -49 4 -83
10 -83 6 0 10 26 10 58 0 64 18 92 58 92 29 0 42 -29 42 -94 0 -31 3 -56 8
-56 12 0 4 140 -9 156 -15 18 -37 18 -73 -1z"/>
<path d="M2430 602 c-32 -32 -37 -60 -18 -95 26 -50 90 -64 123 -27 21 23 9
26 -19 5 -11 -8 -28 -15 -37 -15 -17 0 -59 44 -59 61 0 5 32 9 70 9 62 0 70 2
70 19 0 29 -31 60 -67 67 -27 5 -37 1 -63 -24z m107 -22 l12 -25 -60 -3 c-34
-2 -64 -1 -67 2 -2 3 3 17 12 31 23 36 84 33 103 -5z"/>
<path d="M9763 620 c-33 -13 -29 -16 25 -16 44 1 47 -1 50 -26 3 -26 1 -27
-32 -21 -28 4 -39 1 -61 -21 -25 -25 -26 -29 -12 -49 17 -26 57 -33 89 -16 16
9 23 9 26 0 10 -31 18 -4 14 57 -5 90 -35 118 -99 92z m61 -76 c23 -9 20 -51
-5 -64 -49 -27 -100 19 -59 52 24 19 39 22 64 12z"/>
<path d="M9917 624 c-11 -11 -9 -164 3 -164 6 0 10 24 10 53 0 61 20 97 55 97
32 0 39 -14 46 -90 l6 -65 1 56 c2 59 26 99 60 99 31 0 42 -22 42 -87 0 -35 4
-63 10 -63 6 0 10 28 10 63 0 96 -37 132 -90 89 -23 -18 -24 -18 -42 0 -23 23
-67 17 -82 -10 -9 -15 -11 -14 -16 6 -3 13 -8 20 -13 16z"/>
<path d="M10242 620 c-27 -11 -55 -71 -45 -97 12 -36 46 -63 78 -63 34 0 75
24 62 36 -4 5 -11 4 -15 -2 -23 -37 -102 -16 -102 26 0 18 7 20 71 20 68 0 70
1 64 23 -8 28 -51 67 -73 66 -9 0 -27 -4 -40 -9z m82 -32 c9 -12 16 -26 16
-30 0 -5 -29 -8 -65 -8 -67 0 -73 7 -42 48 16 21 74 15 91 -10z"/>
<path d="M16119 601 c-37 -38 -39 -82 -4 -116 50 -51 135 -15 135 57 -1 37
-14 59 -47 76 -34 18 -52 14 -84 -17z m95 -10 c26 -28 17 -79 -16 -104 l-28
-21 -27 21 c-33 24 -41 65 -18 99 19 30 64 32 89 5z"/>
<path d="M16345 618 c-11 -6 -23 -16 -27 -22 -5 -7 -8 -4 -8 7 0 9 -4 17 -10
17 -6 0 -10 -33 -10 -80 0 -47 4 -80 10 -80 6 0 10 27 10 60 0 57 2 62 30 78
16 9 30 20 30 25 0 9 -1 9 -25 -5z"/>
<path d="M16503 620 c-34 -14 -28 -19 17 -13 43 6 70 -8 70 -37 0 -13 -9 -17
-43 -16 -68 2 -100 -40 -61 -78 18 -19 65 -21 82 -4 8 8 15 8 27 -2 8 -7 17
-11 19 -9 1 2 0 33 -4 68 -8 87 -43 116 -107 91z m65 -76 c31 -9 25 -44 -10
-64 -21 -11 -32 -12 -45 -4 -25 16 -28 45 -7 61 20 15 29 15 62 7z"/>
<path d="M16918 624 c-12 -11 -10 -234 2 -234 6 0 10 23 10 51 0 50 0 50 22
35 34 -24 73 -20 97 10 30 38 27 80 -8 115 -33 33 -45 35 -83 15 -23 -12 -27
-12 -30 1 -2 8 -6 11 -10 7z m113 -35 c28 -28 22 -76 -13 -102 l-28 -21 -27
21 c-52 38 -36 123 24 123 12 0 32 -9 44 -21z"/>
<path d="M17300 546 c0 -51 4 -86 10 -86 6 0 10 27 10 60 0 57 2 62 30 78 16
9 30 20 30 25 0 13 -16 7 -38 -13 -17 -16 -22 -17 -22 -6 0 8 -4 18 -10 21 -6
4 -10 -25 -10 -79z"/>
<path d="M17452 614 c-12 -8 -22 -10 -22 -5 0 6 -4 11 -10 11 -6 0 -10 -43
-10 -109 0 -63 4 -112 10 -116 6 -4 10 13 10 45 0 51 0 51 22 36 32 -23 65
-20 93 9 35 34 33 78 -4 116 -33 33 -56 36 -89 13z m83 -28 c23 -34 15 -75
-17 -99 l-28 -21 -27 21 c-55 40 -35 123 28 123 19 0 34 -8 44 -24z"/>
<path d="M17654 620 c-30 -12 -54 -49 -54 -83 0 -38 40 -77 80 -77 83 0 109
124 33 159 -28 13 -31 13 -59 1z m68 -27 c22 -20 23 -70 1 -95 -34 -38 -103
-11 -103 41 0 61 60 92 102 54z"/>
<path d="M17816 617 c-32 -24 -17 -59 34 -78 49 -18 58 -32 39 -55 -13 -15
-41 -15 -84 0 -20 8 -20 7 -1 -8 25 -20 80 -21 100 0 29 29 19 51 -31 70 -55
21 -67 33 -50 52 7 9 24 12 49 9 41 -6 52 7 16 17 -35 9 -52 7 -72 -7z"/>
<path d="M17993 620 c-48 -19 -58 -95 -18 -135 30 -31 74 -32 106 -4 26 22 21
22 -24 -1 -25 -12 -32 -12 -55 1 -15 8 -28 25 -30 37 -3 21 0 22 67 22 82 0
90 12 42 61 -30 30 -50 34 -88 19z m79 -27 c34 -31 23 -43 -42 -43 -45 0 -60
3 -60 14 0 41 67 61 102 29z"/>
<path d="M2040 552 c0 -40 5 -73 12 -80 17 -17 54 -15 83 4 23 15 25 15 25 0
0 -9 5 -16 10 -16 6 0 10 33 10 80 0 47 -4 80 -10 80 -5 0 -10 -23 -10 -50 0
-41 -5 -56 -25 -75 -28 -29 -34 -30 -59 -12 -14 11 -19 28 -20 75 -1 85 -16
79 -16 -6z"/>
<path d="M9040 568 c0 -71 17 -102 56 -106 19 -2 36 3 44 12 16 20 30 20 30 1
0 -8 5 -15 11 -15 6 0 8 7 5 16 -3 9 -6 45 -6 80 0 35 -4 64 -9 64 -5 0 -8
-19 -7 -42 4 -80 -43 -129 -85 -87 -14 14 -19 33 -19 74 0 30 -4 55 -10 55 -5
0 -10 -24 -10 -52z"/>
<path d="M17110 559 c0 -33 5 -69 10 -80 13 -23 57 -25 85 -5 17 12 21 12 31
-3 18 -23 20 -15 16 72 -4 89 -20 103 -24 21 -3 -48 -7 -60 -29 -77 -22 -15
-30 -17 -48 -8 -18 10 -21 21 -21 76 0 37 -4 65 -10 65 -6 0 -10 -27 -10 -61z"/>
</g>
</svg>
